# xmcd CD database file generated by Grip 3.2.0
# 
# Track frame offsets:
#       150
#       21144
#       38986
#       57786
#       81000
#       100072
#       125817
#       142485
#       161453
#       181127
#       206459
# 
# Disc length: 3076 seconds
# 
# Revision: 2
# Processed by: cddbd v1.5.1PL0 Copyright (c) Steve Scherf et al.
# Submitted via: Grip 3.2.0
# 
DISCID=940c020b
DTITLE=Boys II Men - Boys II Men- Throwback
DYEAR=1900
DGENRE=Blues
TTITLE0=Let It Whip
TTITLE1=Let's Stay Together
TTITLE2=What You Won't Do For Love
TTITLE3=Cutie Pie
TTITLE4=Close The Door
TTITLE5=For The Love Of You
TTITLE6=Sara Smile
TTITLE7=Human Nature
TTITLE8=Time Will Reveal
TTITLE9=I Miss You
TTITLE10=You Make Me Feel Brand New
EXTD=
EXTT0=
EXTT1=
EXTT2=
EXTT3=
EXTT4=
EXTT5=
EXTT6=
EXTT7=
EXTT8=
EXTT9=
EXTT10=
PLAYORDER=
